<?xml version="1.0" encoding="UTF-8"?>
<svg width="70px" height="70px" viewBox="0 0 70 70" version="1.1" xmlns="http://www.w3.org/2000/svg" xmlns:xlink="http://www.w3.org/1999/xlink">
    <!-- Generator: Sketch 55.2 (78181) - https://sketchapp.com -->
    <title>bedtime</title>
    <desc>Created with Sketch.</desc>
    <g id="Page-1" stroke="none" stroke-width="1" fill="none" fill-rule="evenodd" stroke-linejoin="round">
        <g id="Artboard" transform="translate(-501.000000, -63.000000)" stroke="#000000" stroke-width="2">
            <g id="bedtime" transform="translate(501.000000, 63.000000)">
                <path d="M18.956875,35 C18.956875,20.1425 27.1410417,7.3675 38.8689583,1.69166667 C18.8839583,-0.644583333 1.456875,15.0091667 1.456875,35 C1.456875,54.8975 18.755625,70.62125 38.8689583,68.3170833 C27.1410417,62.6383333 18.956875,49.8633333 18.956875,35 L18.956875,35 Z" id="Stroke-4404" stroke-linecap="round"></path>
                <path d="M53.956875,42.2916667 C53.9335417,49.6183333 57.500625,53.7891667 65.6235417,53.9583333 C58.086875,53.9291667 54.3389583,57.96875 53.956875,65.625 C53.8927083,58.4091667 50.658125,53.9525 42.2902083,53.9583333 C49.7802083,53.85625 53.9247917,50.2395833 53.956875,42.2916667 L53.956875,42.2916667 Z" id="Stroke-4405"></path>
                <path d="M39.3735417,23.3333333 C39.3560417,27.9125 41.5902083,30.5170833 46.6652083,30.625 C41.9547917,30.6075 39.6127083,33.1333333 39.3735417,37.9166667 C39.3327083,33.4045833 37.3114583,30.6191667 32.081875,30.625 C36.7602083,30.5608333 39.3560417,28.3004167 39.3735417,23.3333333 L39.3735417,23.3333333 Z" id="Stroke-4406"></path>
                <path d="M59.7902083,4.375 C59.7727083,9.87291667 62.4502083,12.9995833 68.5402083,13.125 C62.8877083,13.1045833 60.0760417,16.135 59.7902083,21.875 C59.7435417,16.4616667 57.3110417,13.1191667 51.0402083,13.125 C56.6577083,13.0520833 59.766875,10.3366667 59.7902083,4.375 L59.7902083,4.375 Z" id="Stroke-4407"></path>
            </g>
        </g>
    </g>
</svg>