<?xml version="1.0" encoding="UTF-8"?>
<svg width="70px" height="64px" viewBox="0 0 70 64" version="1.1" xmlns="http://www.w3.org/2000/svg" xmlns:xlink="http://www.w3.org/1999/xlink">
    <!-- Generator: Sketch 55.2 (78181) - https://sketchapp.com -->
    <title>Group 517</title>
    <desc>Created with Sketch.</desc>
    <g id="Page-1" stroke="none" stroke-width="1" fill="none" fill-rule="evenodd" stroke-linejoin="round">
        <g id="Desktop-Selection" transform="translate(-131.000000, -1410.000000)" stroke="#000000" stroke-width="2">
            <g id="Group-13" transform="translate(130.000000, 1061.000000)">
                <g id="Group-12" transform="translate(0.000000, 74.000000)">
                    <g id="Group-16" transform="translate(1.000000, 268.000000)">
                        <g id="Group-517" transform="translate(0.000000, 7.000000)">
                            <path d="M68.5416667,28.4118333 C68.5416667,43.526 53.5266667,55.776 35,55.776 C30.8641667,55.776 26.90625,55.1664167 23.24875,54.0493333 L3.9725,63.0180833 L11.5208333,47.9505833 C5.31125,42.9835 1.45833333,36.0651667 1.45833333,28.4118333 C1.45833333,13.29475 16.4733333,1.04475 35,1.04475 C53.5266667,1.04475 68.5416667,13.29475 68.5416667,28.4118333 L68.5416667,28.4118333 Z" id="Stroke-766"></path>
                            <polygon id="Stroke-767" points="18.9583333 29.1141667 30.625 29.1141667 30.625 17.4475 18.9583333 17.4475"></polygon>
                            <path d="M30.625,29.1153333 L30.625,33.4903333 C30.625,36.6986667 28,39.3236667 24.7916667,39.3236667" id="Stroke-768" stroke-linecap="round"></path>
                            <polygon id="Stroke-769" points="39.375 29.1141667 51.0416667 29.1141667 51.0416667 17.4475 39.375 17.4475"></polygon>
                            <path d="M51.0416667,29.1153333 L51.0416667,33.4903333 C51.0416667,36.6986667 48.4166667,39.3236667 45.2083333,39.3236667" id="Stroke-770" stroke-linecap="round"></path>
                        </g>
                    </g>
                </g>
            </g>
        </g>
    </g>
</svg>