<?xml version="1.0" encoding="UTF-8"?>
<svg width="70px" height="67px" viewBox="0 0 70 67" version="1.1" xmlns="http://www.w3.org/2000/svg" xmlns:xlink="http://www.w3.org/1999/xlink">
    <!-- Generator: Sketch 55.2 (78181) - https://sketchapp.com -->
    <title>time off</title>
    <desc>Created with Sketch.</desc>
    <g id="Page-1" stroke="none" stroke-width="1" fill="none" fill-rule="evenodd" stroke-linecap="round" stroke-linejoin="round">
        <g id="Artboard" transform="translate(-501.000000, -430.000000)" stroke="#000000" stroke-width="2">
            <g id="time-off" transform="translate(501.000000, 430.000000)">
                <path d="M68.5402083,48.0795 L51.0402083,48.0795 C43.8914583,48.0795 37.5622917,50.3749167 33.569375,53.9128333" id="Stroke-6632"></path>
                <path d="M51.0402083,48.125 L41.3685417,23.72125" id="Stroke-6633"></path>
                <path d="M33.8464583,4.73958333 L32.7702083,2.02708333" id="Stroke-6634"></path>
                <path d="M33.8464583,4.73958333 C19.621875,10.3775 10.381875,20.7375 14.5352083,31.2170833 L15.6114583,33.9325 L22.3897917,31.2433333 L24.0260417,27.4545833 L27.811875,29.0966667 L54.9252083,18.3458333 L56.564375,14.5629167 L60.3502083,16.1991667 L67.1285417,13.51 L66.0522917,10.7975 C61.8989583,0.315 48.0710417,-0.90125 33.8464583,4.73958333 L33.8464583,4.73958333 Z" id="Stroke-6635"></path>
                <path d="M68.5402083,65.625 C65.6235417,65.625 62.706875,63.0116667 62.706875,59.7916667 C62.706875,63.0116667 59.7902083,65.625 56.8735417,65.625 C53.956875,65.625 51.0402083,63.0116667 51.0402083,59.7916667 C51.0402083,63.0116667 48.1235417,65.625 45.206875,65.625 C42.2902083,65.625 39.3735417,63.0116667 39.3735417,59.7916667 C39.3735417,63.0116667 36.456875,65.625 33.5402083,65.625 C30.6235417,65.625 27.706875,63.0116667 27.706875,59.7916667 C27.706875,63.0116667 24.7902083,65.625 21.8735417,65.625 C18.956875,65.625 16.0402083,63.0116667 16.0402083,59.7916667 C16.0402083,63.0116667 13.1235417,65.625 10.206875,65.625 C7.29020833,65.625 4.37354167,63.0116667 4.37354167,59.7916667 C4.37354167,61.8041667 3.023125,63.5804167 1.456875,64.6275" id="Stroke-6636"></path>
            </g>
        </g>
    </g>
</svg>